<?xml version="1.0" encoding="UTF-8"?>
<svg version="1.1" xmlns="http://www.w3.org/2000/svg" width="500" height="500">
<path d="M0 0 C165 0 330 0 500 0 C500 165 500 330 500 500 C335 500 170 500 0 500 C0 335 0 170 0 0 Z " fill="#5E17EB" transform="translate(0,0)"/>
<path d="M0 0 C4.73803303 2.03532302 7.91827048 4.54322456 11.546875 8.18359375 C12.292789 8.92875999 12.292789 8.92875999 13.05377197 9.6889801 C14.09594128 10.73347578 15.13445418 11.78163144 16.16943359 12.83325195 C17.75069228 14.43820266 19.34495775 16.02931334 20.94140625 17.61914062 C30.70036387 27.43169035 30.70036387 27.43169035 31.4375 33.75 C31.16353237 42.54736887 23.44659757 48.98255233 17.60508728 54.76913452 C16.76242563 55.61577057 15.91976399 56.46240663 15.05156714 57.33469832 C12.72723949 59.66694945 10.39635921 61.99240511 8.0624522 64.31506276 C5.54100013 66.82763536 3.02824575 69.34888132 0.51435852 71.86901855 C-4.40435569 76.79719958 -9.3310462 81.7173308 -14.26057632 86.63469045 C-20.00167278 92.3621416 -25.73510527 98.09723938 -31.46832543 103.83257289 C-41.69600892 114.06344292 -51.93109178 124.28687871 -62.17016602 134.50634766 C-72.10627656 144.42343801 -82.03638778 154.34648685 -91.96020508 164.27587891 C-102.77160092 175.09333016 -113.5861 185.90766025 -124.40620893 196.71639693 C-125.55937002 197.86835073 -126.71253045 199.02030518 -127.86569023 200.17226028 C-128.43305916 200.73902567 -129.00042809 201.30579106 -129.58499001 201.88973116 C-133.58485256 205.88571291 -137.58257345 209.88382963 -141.57954597 213.88270187 C-146.44722176 218.75249786 -151.31854453 223.61861107 -156.19453747 228.48007981 C-158.68257727 230.9608684 -161.16899713 233.44322476 -163.65113449 235.9299202 C-166.33937442 238.62297662 -169.03529509 241.30825713 -171.73207092 243.99276733 C-172.51854431 244.78302004 -173.30501769 245.57327275 -174.1153236 246.38747251 C-174.83778379 247.10410051 -175.56024398 247.8207285 -176.3045969 248.55907249 C-176.92614676 249.17975558 -177.54769662 249.80043866 -178.18808132 250.43993032 C-181.57779108 253.35848482 -184.43379217 254.30582231 -188.875 254.375 C-189.69742188 254.40335938 -190.51984375 254.43171875 -191.3671875 254.4609375 C-198.743412 253.16955102 -204.26424688 246.07486606 -209.31494141 241.00073242 C-210.75173404 239.56076213 -212.20140703 238.13468528 -213.65234375 236.70898438 C-214.56628906 235.79568359 -215.48023438 234.88238281 -216.421875 233.94140625 C-217.25299805 233.11326416 -218.08412109 232.28512207 -218.94042969 231.43188477 C-222.54772929 227.17248323 -223.62702611 222.93267019 -223.41219842 217.44440949 C-222.13702007 209.8823765 -213.71755218 203.43377405 -208.52279663 198.26882935 C-207.68336411 197.42627684 -206.84393159 196.58372434 -205.97906172 195.71563995 C-203.66660923 193.39662549 -201.34977179 191.08210217 -199.03092957 188.76948023 C-196.52426537 186.26736176 -194.02338857 183.75946968 -191.52174377 181.25233459 C-186.62854324 176.35026253 -181.72997776 171.45358613 -176.829437 166.5588531 C-172.84758023 162.58151959 -168.86768775 158.60223038 -164.88917923 154.6215477 C-164.32219801 154.05426001 -163.75521678 153.48697232 -163.17105431 152.9024941 C-162.01917697 151.74997729 -160.86730412 150.59745601 -159.7154357 149.4449303 C-148.92750066 138.65129907 -138.13345569 127.8637948 -127.33729585 117.07839118 C-118.07262018 107.82266006 -108.81321427 98.56168426 -99.55761719 89.296875 C-88.80365864 78.53221793 -78.04646916 67.77080665 -67.28408778 57.01457012 C-66.13711741 55.86823684 -64.99015121 54.72189939 -63.84318924 53.57555771 C-62.99672449 52.72955579 -62.99672449 52.72955579 -62.13315945 51.86646292 C-58.15515601 47.89018696 -54.1794793 43.91159369 -50.20469284 39.9321022 C-45.36439103 35.08619665 -40.52055301 30.24385974 -35.67211913 25.40608998 C-33.19823356 22.93746643 -30.72598493 20.46726004 -28.25803185 17.99270439 C-25.58435134 15.31358655 -22.90463197 12.64066137 -20.22323608 9.9692688 C-19.44133577 9.18290704 -18.65943545 8.39654528 -17.85384119 7.58635437 C-16.77630104 6.51663748 -16.77630104 6.51663748 -15.67699242 5.42531013 C-15.05902239 4.80766482 -14.44105237 4.1900195 -13.80435598 3.55365765 C-9.66133045 -0.01373337 -5.3918231 -0.89224119 0 0 Z " fill="#FEFEFE" transform="translate(275,88)"/>
<path d="M0 0 C7.18485488 2.88854634 11.82196942 7.26199298 17.21411133 12.72827148 C18.09803558 13.60839905 18.98195984 14.48852661 19.89266968 15.39532471 C22.29858473 17.79512804 24.69527457 20.20345963 27.08790421 22.61646533 C29.60094752 25.14717141 32.1246265 27.66723181 34.64689636 30.18873596 C38.87749008 34.42119799 43.10029407 38.6613056 47.31811523 42.90649414 C52.18869231 47.8085576 57.06967981 52.70005321 61.95675641 57.58566421 C67.17152873 62.79908408 72.37865169 68.02009297 77.5835588 73.2433598 C79.07949385 74.74354914 80.5768377 76.2423199 82.07450294 77.74078178 C84.86665533 80.53532249 87.65021317 83.33832788 90.43286133 86.14233398 C91.26042435 86.96899063 92.08798737 87.79564728 92.94062805 88.64735413 C93.69887878 89.41413483 94.45712952 90.18091553 95.23835754 90.97093201 C95.89626691 91.63219306 96.55417627 92.29345411 97.23202229 92.97475338 C100.70470221 96.95276353 102.42996738 100.12700507 102.4375 105.4375 C102.45683594 106.34371094 102.47617187 107.24992187 102.49609375 108.18359375 C101.17463335 115.68574294 94.16888754 121.17065972 89.00073242 126.31494141 C87.56076213 127.75173404 86.13468528 129.20140703 84.70898438 130.65234375 C83.79568359 131.56628906 82.88238281 132.48023438 81.94140625 133.421875 C81.11326416 134.25299805 80.28512207 135.08412109 79.43188477 135.94042969 C75.26966163 139.46542862 71.66285283 140.21216995 66.2578125 140.4609375 C60.0612483 139.19589498 55.42219257 134.84362141 51.17578125 130.42114258 C50.63980316 129.87596481 50.10382507 129.33078705 49.55160522 128.76908875 C48.39870527 127.59487054 47.24921863 126.41729286 46.10287476 125.23667336 C44.28561877 123.36687277 42.45760739 121.5082239 40.6262207 119.65226746 C35.42461437 114.37760742 30.24035558 109.08613893 25.06933594 103.78149414 C21.8969475 100.52866771 18.71002217 97.29068128 15.51376343 94.06131554 C14.30241368 92.83137972 13.0967813 91.59578499 11.89712524 90.35444069 C10.21971643 88.61923412 8.52448491 86.90344734 6.82421875 85.19067383 C6.33674164 84.67691193 5.84926453 84.16315002 5.34701538 83.63381958 C1.78565712 80.10206375 -0.99580813 79.02017783 -6 79 C-8.04643339 79.87073992 -8.04643339 79.87073992 -9.59082031 81.5925293 C-10.26326782 82.24579193 -10.93571533 82.89905457 -11.62854004 83.57211304 C-12.41112183 84.37331573 -13.19370361 85.17451843 -14 86 C-14.98179334 86.97046992 -15.96544335 87.93906372 -16.95056152 88.90615845 C-19.87107504 91.78569938 -22.76365596 94.69192564 -25.65013885 97.60553932 C-27.58136575 99.55433579 -29.51626916 101.49941363 -31.45220947 103.44352722 C-36.95016808 108.96579632 -42.44230419 114.49383018 -47.93017578 120.02612305 C-51.30029684 123.42301116 -54.67526141 126.81502398 -58.0532608 130.20407677 C-59.33577227 131.4927914 -60.61638371 132.78339985 -61.89504242 134.07593727 C-63.6777755 135.8778703 -65.46656949 137.67357346 -67.25683594 139.46801758 C-67.78158005 140.00152328 -68.30632416 140.53502899 -68.8469696 141.08470154 C-73.02052249 145.24715467 -75.9550754 147.28278934 -81.875 147.375 C-82.69742188 147.40335938 -83.51984375 147.43171875 -84.3671875 147.4609375 C-91.743412 146.16955102 -97.26424688 139.07486606 -102.31494141 134.00073242 C-103.75173404 132.56076213 -105.20140703 131.13468528 -106.65234375 129.70898438 C-107.56628906 128.79568359 -108.48023438 127.88238281 -109.421875 126.94140625 C-110.66855957 125.69919312 -110.66855957 125.69919312 -111.94042969 124.43188477 C-115.54746334 120.17279726 -116.63246475 115.92930989 -116.40817928 110.44037151 C-115.07805847 102.48801067 -105.92131888 95.6374924 -100.49389648 90.23510742 C-99.54505845 89.28355348 -98.59664512 88.33157587 -97.64862061 87.37921143 C-95.09344311 84.8149827 -92.53206056 82.2570404 -89.96917224 79.70052123 C-87.27925919 77.01570161 -84.59426299 74.3259717 -81.90846252 71.63703918 C-77.40227972 67.12722832 -72.89191985 62.62162741 -68.37915039 58.1184082 C-63.16755827 52.91771822 -57.96323663 47.70983598 -52.76259369 42.49819869 C-48.28628549 38.01280816 -43.80608376 33.53133465 -39.32261711 29.05309945 C-36.64942449 26.38301877 -33.97758721 23.71161952 -31.30926323 21.03667259 C-28.80292132 18.52454339 -26.29171814 16.01737627 -23.77671814 13.51391602 C-22.41822223 12.15931417 -21.064629 10.79980107 -19.7111969 9.44013977 C-18.89682159 8.63140411 -18.08244629 7.82266846 -17.24339294 6.98942566 C-16.54048347 6.28727023 -15.83757399 5.5851148 -15.11336422 4.86168194 C-10.37448692 0.68716143 -6.34076305 -1.02964433 0 0 Z " fill="#FEFDFE" transform="translate(239,266)"/>
<path d="M0 0 C4.95517968 2.49475461 8.79039521 5.35583205 12.68769836 9.31347656 C13.47859518 10.09841177 13.47859518 10.09841177 14.28546971 10.89920425 C16.03513444 12.63931101 17.77395735 14.38984756 19.51293945 16.140625 C20.77116665 17.39642216 22.03003902 18.65157318 23.289505 19.90612793 C26.69688135 23.30412308 30.09480826 26.71142315 33.49081826 30.12077332 C37.04850856 33.68980097 40.61393009 37.25109052 44.17826843 40.81347656 C50.15930458 46.79363075 56.13434066 52.77972822 62.10571289 58.76953125 C69.01075379 65.69576241 75.92460756 72.61309768 82.84336692 79.52562332 C89.50146449 86.17802901 96.15388136 92.83608614 102.8035183 99.49694824 C105.63306725 102.33114303 108.46449314 105.16344302 111.29741859 107.9942627 C114.63039858 111.32536079 117.95834761 114.66140517 121.28245354 118.00135803 C122.50381045 119.22696118 123.72687233 120.45086796 124.95174408 121.67295837 C126.62157288 123.33956978 128.28513293 125.01219624 129.94721985 126.68652344 C130.43466071 127.17018497 130.92210157 127.65384651 131.42431337 128.15216446 C135.72251556 132.50663086 137.31711722 135.63917732 137.5625 141.75 C137.62566406 142.73484375 137.68882812 143.7196875 137.75390625 144.734375 C136.60637872 149.70501239 133.50901951 152.42399123 130 156 C128.91972534 157.13405273 128.91972534 157.13405273 127.81762695 158.29101562 C125.52726868 160.67700112 123.20589341 163.02864461 120.875 165.375 C119.69744141 166.58349609 119.69744141 166.58349609 118.49609375 167.81640625 C117.73167969 168.58597656 116.96726562 169.35554687 116.1796875 170.1484375 C115.49632324 170.84114746 114.81295898 171.53385742 114.10888672 172.24755859 C109.72496662 175.89050586 105.60159687 176.49136815 100 176 C95.29017539 174.04339531 91.94084552 171.3708981 88.40132141 167.78227234 C87.87153331 167.2571642 87.3417452 166.73205607 86.79590291 166.19103557 C85.03163985 164.43868928 83.27823686 162.67587502 81.5246582 160.9128418 C80.25834124 159.650592 78.99138741 158.38898085 77.72384644 157.12796021 C74.28938087 153.70715673 70.86445551 150.27694868 67.44157815 146.84455466 C63.85602197 143.25139622 60.26314399 139.66557109 56.6714325 136.0785675 C50.64135021 130.05394111 44.61761626 124.02302154 38.59741211 117.98852539 C31.63999177 111.01477893 24.67182992 104.0519057 17.69798976 97.09458226 C11.70762322 91.11783529 5.72312996 85.13525466 -0.25650531 79.14777118 C-3.82655178 75.57305082 -7.39858667 72.00038076 -10.97592735 68.4329586 C-14.3389841 65.078576 -17.69460151 61.71692369 -21.04465103 58.34955215 C-22.27438837 57.11585242 -23.50667774 55.8846904 -24.74170494 54.65628624 C-26.42893756 52.97726862 -28.10663138 51.28925352 -29.78227234 49.59867859 C-30.27137343 49.11626967 -30.76047451 48.63386074 -31.26439685 48.13683337 C-35.2504982 44.08168397 -37.71461243 40.24233088 -38.4375 34.5625 C-37.37656288 25.92344058 -30.98549031 20.51490513 -25.05566406 14.66455078 C-23.62459262 13.24959721 -22.21030943 11.81926689 -20.796875 10.38671875 C-19.88679688 9.48050781 -18.97671875 8.57429687 -18.0390625 7.640625 C-17.21615723 6.82110352 -16.39325195 6.00158203 -15.54541016 5.15722656 C-10.64698423 1.00582704 -6.43044177 -0.78970338 0 0 Z " fill="#FEFEFE" transform="translate(310,195)"/>
</svg>
